<svg width="27" height="29" viewBox="0 0 27 29" fill="none" xmlns="http://www.w3.org/2000/svg">
<path d="M12.3574 28.2109H14.6426C14.8457 28.2109 14.9473 28.1094 14.9473 27.9062V1.09375C14.9473 0.890625 14.8457 0.789062 14.6426 0.789062H12.3574C12.1543 0.789062 12.0527 0.890625 12.0527 1.09375V27.9062C12.0527 28.1094 12.1543 28.2109 12.3574 28.2109Z" fill="white"/>
<path d="M0.703125 15.9473H26.2969C26.5 15.9473 26.6016 15.8457 26.6016 15.6426V13.3574C26.6016 13.1543 26.5 13.0527 26.2969 13.0527H0.703125C0.5 13.0527 0.398438 13.1543 0.398438 13.3574V15.6426C0.398438 15.8457 0.5 15.9473 0.703125 15.9473Z" fill="white"/>
</svg>
