<svg width="43" height="43" viewBox="0 0 43 43" fill="none" xmlns="http://www.w3.org/2000/svg">
<path d="M4.98594 25.4199L14.2275 24.9804C14.6643 24.9596 15.0759 24.7698 15.3754 24.4512C15.6749 24.1326 15.8389 23.7101 15.8327 23.2729L15.7518 17.4928C16.5686 16.9379 18.3774 15.9889 21.2127 15.9853C24.0527 15.9865 25.865 16.9391 26.6736 17.4928L26.5961 23.2716C26.5895 23.709 26.7534 24.1317 27.0529 24.4504C27.3525 24.7691 27.7644 24.9588 28.2013 24.9792L37.4405 25.4186C37.8782 25.4396 38.3069 25.2892 38.6356 24.9993C38.9642 24.7093 39.1668 24.3027 39.2005 23.8658L39.5684 19.0658C39.5677 18.6533 39.4156 18.2554 39.141 17.9476C38.8611 17.6321 32.15 10.2398 21.2115 10.2374C11.6722 10.2387 5.34797 15.8651 3.70231 17.5108C3.46178 17.7513 3.32127 17.9061 3.28435 17.9478C3.00949 18.2552 2.85807 18.6535 2.85924 19.0659L3.22955 23.8659C3.26165 24.3029 3.4633 24.71 3.79147 25.0004C4.11963 25.2907 4.54829 25.4413 4.98594 25.4199Z" fill="#1F1C21"/>
</svg>
