<svg width="28" height="20" viewBox="0 0 28 20" fill="none" xmlns="http://www.w3.org/2000/svg">
<path d="M3.334 0H16.666C18.506 0 20 1.492 20 3.334V16.666C20 18.506 18.508 20 16.666 20H3.334C1.494 20 0 18.508 0 16.666V3.334C0 1.494 1.492 0 3.334 0Z" fill="#29262B"/>
<path d="M12.8078 11.394L25.5338 18.778C26.6138 19.404 27.9998 18.646 27.9998 17.384V2.61601C27.9998 1.35601 26.6138 0.596009 25.5338 1.22401L12.8078 8.60801C12.5621 8.74826 12.3579 8.95098 12.2159 9.19563C12.0738 9.44027 11.999 9.71812 11.999 10.001C11.999 10.2839 12.0738 10.5618 12.2159 10.8064C12.3579 11.051 12.5621 11.2538 12.8078 11.394V11.394Z" fill="#29262B"/>
</svg>
