<svg width="37" height="33" viewBox="0 0 37 33" fill="none" xmlns="http://www.w3.org/2000/svg">
<path d="M1.13379 5.375C0.402027 6.14014 -0.00218323 7.13571 8.86952e-06 8.1675V24.8325C8.86952e-06 27.1325 1.97158 29 4.40565 29H22.0229C23.1594 29 24.1927 28.595 24.975 27.9275L1.13644 5.3775L1.13379 5.375ZM35.7843 27.545C36.1489 27.3837 36.4571 27.1272 36.6725 26.8055C36.8879 26.4839 37.0016 26.1107 37 25.73V7.27C37 5.695 35.1685 4.745 33.7413 5.53L26.4286 9.545V8.1675C26.4286 5.8675 24.457 4 22.0229 4H10.8912L35.7843 27.545Z" fill="white"/>
<path fill-rule="evenodd" clip-rule="evenodd" d="M33.1615 33L2 1.83853L3.83853 0L35 31.1615L33.1615 32.9974V33Z" fill="white"/>
</svg>
