<svg width="26" height="26" viewBox="0 0 26 26" fill="none" xmlns="http://www.w3.org/2000/svg">
<path d="M13 0C16.4478 0 19.7544 1.36964 22.1924 3.80761C24.6304 6.24558 26 9.55219 26 13C26 16.4478 24.6304 19.7544 22.1924 22.1924C19.7544 24.6304 16.4478 26 13 26C9.55219 26 6.24558 24.6304 3.80761 22.1924C1.36964 19.7544 0 16.4478 0 13C0 9.55219 1.36964 6.24558 3.80761 3.80761C6.24558 1.36964 9.55219 0 13 0ZM8.37687 16.9439C8.22496 16.7909 8.01848 16.7045 7.80287 16.7037C7.58726 16.703 7.38018 16.7879 7.22719 16.9398C7.07419 17.0917 6.98781 17.2982 6.98705 17.5138C6.98629 17.7294 7.07121 17.9365 7.22313 18.0895C8.69593 19.572 10.6823 20.4315 12.7712 20.4902C14.8601 20.5489 16.8917 19.8022 18.4454 18.4048L18.7769 18.0895L18.8695 17.9757C18.9769 17.8189 19.0259 17.6294 19.008 17.4402C18.9901 17.251 18.9064 17.074 18.7716 16.9401C18.6367 16.8062 18.4591 16.7238 18.2698 16.7073C18.0804 16.6908 17.8913 16.7411 17.7352 16.8496L17.6231 16.9439L17.3339 17.2201C16.0887 18.328 14.4663 18.9168 12.8004 18.8655C11.1344 18.8141 9.55144 18.1264 8.37687 16.9439ZM17.0625 8.9375C16.6315 8.9375 16.2182 9.10871 15.9135 9.41345C15.6087 9.7182 15.4375 10.1315 15.4375 10.5625C15.4375 10.9935 15.6087 11.4068 15.9135 11.7115C16.2182 12.0163 16.6315 12.1875 17.0625 12.1875C17.4935 12.1875 17.9068 12.0163 18.2115 11.7115C18.5163 11.4068 18.6875 10.9935 18.6875 10.5625C18.6875 10.1315 18.5163 9.7182 18.2115 9.41345C17.9068 9.10871 17.4935 8.9375 17.0625 8.9375ZM8.9375 8.9375C8.50652 8.9375 8.0932 9.10871 7.78845 9.41345C7.48371 9.7182 7.3125 10.1315 7.3125 10.5625C7.3125 10.9935 7.48371 11.4068 7.78845 11.7115C8.0932 12.0163 8.50652 12.1875 8.9375 12.1875C9.36848 12.1875 9.7818 12.0163 10.0865 11.7115C10.3913 11.4068 10.5625 10.9935 10.5625 10.5625C10.5625 10.1315 10.3913 9.7182 10.0865 9.41345C9.7818 9.10871 9.36848 8.9375 8.9375 8.9375Z" fill="#8360C7"/>
</svg>
