<svg width="39" height="28" viewBox="0 0 39 28" fill="none" xmlns="http://www.w3.org/2000/svg">
<path fill-rule="evenodd" clip-rule="evenodd" d="M11.4375 24.9062C11.4375 24.5499 11.5791 24.2081 11.8311 23.9561C12.0831 23.7041 12.4249 23.5625 12.7812 23.5625H36.9688C37.3251 23.5625 37.6669 23.7041 37.9189 23.9561C38.1709 24.2081 38.3125 24.5499 38.3125 24.9062C38.3125 25.2626 38.1709 25.6044 37.9189 25.8564C37.6669 26.1084 37.3251 26.25 36.9688 26.25H12.7812C12.4249 26.25 12.0831 26.1084 11.8311 25.8564C11.5791 25.6044 11.4375 25.2626 11.4375 24.9062ZM11.4375 14.1562C11.4375 13.7999 11.5791 13.4581 11.8311 13.2061C12.0831 12.9541 12.4249 12.8125 12.7812 12.8125H36.9688C37.3251 12.8125 37.6669 12.9541 37.9189 13.2061C38.1709 13.4581 38.3125 13.7999 38.3125 14.1562C38.3125 14.5126 38.1709 14.8544 37.9189 15.1064C37.6669 15.3584 37.3251 15.5 36.9688 15.5H12.7812C12.4249 15.5 12.0831 15.3584 11.8311 15.1064C11.5791 14.8544 11.4375 14.5126 11.4375 14.1562ZM11.4375 3.40625C11.4375 3.04987 11.5791 2.70808 11.8311 2.45608C12.0831 2.20407 12.4249 2.0625 12.7812 2.0625H36.9688C37.3251 2.0625 37.6669 2.20407 37.9189 2.45608C38.1709 2.70808 38.3125 3.04987 38.3125 3.40625C38.3125 3.76263 38.1709 4.10442 37.9189 4.35642C37.6669 4.60843 37.3251 4.75 36.9688 4.75H12.7812C12.4249 4.75 12.0831 4.60843 11.8311 4.35642C11.5791 4.10442 11.4375 3.76263 11.4375 3.40625ZM3.375 6.09375C4.08777 6.09375 4.77135 5.8106 5.27535 5.3066C5.77935 4.8026 6.0625 4.11902 6.0625 3.40625C6.0625 2.69348 5.77935 2.0099 5.27535 1.5059C4.77135 1.0019 4.08777 0.71875 3.375 0.71875C2.66223 0.71875 1.97865 1.0019 1.47465 1.5059C0.970646 2.0099 0.6875 2.69348 0.6875 3.40625C0.6875 4.11902 0.970646 4.8026 1.47465 5.3066C1.97865 5.8106 2.66223 6.09375 3.375 6.09375ZM3.375 16.8438C4.08777 16.8438 4.77135 16.5606 5.27535 16.0566C5.77935 15.5526 6.0625 14.869 6.0625 14.1562C6.0625 13.4435 5.77935 12.7599 5.27535 12.2559C4.77135 11.7519 4.08777 11.4688 3.375 11.4688C2.66223 11.4688 1.97865 11.7519 1.47465 12.2559C0.970646 12.7599 0.6875 13.4435 0.6875 14.1562C0.6875 14.869 0.970646 15.5526 1.47465 16.0566C1.97865 16.5606 2.66223 16.8438 3.375 16.8438ZM3.375 27.5938C4.08777 27.5938 4.77135 27.3106 5.27535 26.8066C5.77935 26.3026 6.0625 25.619 6.0625 24.9062C6.0625 24.1935 5.77935 23.5099 5.27535 23.0059C4.77135 22.5019 4.08777 22.2188 3.375 22.2188C2.66223 22.2188 1.97865 22.5019 1.47465 23.0059C0.970646 23.5099 0.6875 24.1935 0.6875 24.9062C0.6875 25.619 0.970646 26.3026 1.47465 26.8066C1.97865 27.3106 2.66223 27.5938 3.375 27.5938Z" fill="white"/>
</svg>
