<svg width="15" height="23" viewBox="0 0 15 23" fill="none" xmlns="http://www.w3.org/2000/svg">
<path fill-rule="evenodd" clip-rule="evenodd" d="M0.71875 9.34375C0.909374 9.34375 1.09219 9.41948 1.22698 9.55427C1.36177 9.68906 1.4375 9.87188 1.4375 10.0625V11.5C1.4375 13.025 2.0433 14.4875 3.12164 15.5659C4.19997 16.6442 5.66251 17.25 7.1875 17.25C8.71249 17.25 10.175 16.6442 11.2534 15.5659C12.3317 14.4875 12.9375 13.025 12.9375 11.5V10.0625C12.9375 9.87188 13.0132 9.68906 13.148 9.55427C13.2828 9.41948 13.4656 9.34375 13.6562 9.34375C13.8469 9.34375 14.0297 9.41948 14.1645 9.55427C14.2993 9.68906 14.375 9.87188 14.375 10.0625V11.5C14.375 13.2818 13.7132 15.0001 12.5179 16.3216C11.3226 17.643 9.67914 18.4734 7.90625 18.6516V21.5625H12.2188C12.4094 21.5625 12.5922 21.6382 12.727 21.773C12.8618 21.9078 12.9375 22.0906 12.9375 22.2812C12.9375 22.4719 12.8618 22.6547 12.727 22.7895C12.5922 22.9243 12.4094 23 12.2188 23H2.15625C1.96563 23 1.78281 22.9243 1.64802 22.7895C1.51323 22.6547 1.4375 22.4719 1.4375 22.2812C1.4375 22.0906 1.51323 21.9078 1.64802 21.773C1.78281 21.6382 1.96563 21.5625 2.15625 21.5625H6.46875V18.6516C4.69586 18.4734 3.05235 17.643 1.85708 16.3216C0.661802 15.0001 -2.23843e-05 13.2818 5.67821e-10 11.5V10.0625C5.67821e-10 9.87188 0.0757254 9.68906 0.210517 9.55427C0.345309 9.41948 0.528126 9.34375 0.71875 9.34375Z" fill="white"/>
<path fill-rule="evenodd" clip-rule="evenodd" d="M10.0625 11.5V4.3125C10.0625 3.55 9.7596 2.81874 9.22043 2.27957C8.68126 1.7404 7.95 1.4375 7.1875 1.4375C6.425 1.4375 5.69373 1.7404 5.15457 2.27957C4.6154 2.81874 4.3125 3.55 4.3125 4.3125V11.5C4.3125 12.2625 4.6154 12.9938 5.15457 13.5329C5.69373 14.0721 6.425 14.375 7.1875 14.375C7.95 14.375 8.68126 14.0721 9.22043 13.5329C9.7596 12.9938 10.0625 12.2625 10.0625 11.5ZM7.1875 0C6.04375 0 4.94685 0.454351 4.1381 1.2631C3.32935 2.07185 2.875 3.16875 2.875 4.3125V11.5C2.875 12.6437 3.32935 13.7406 4.1381 14.5494C4.94685 15.3581 6.04375 15.8125 7.1875 15.8125C8.33125 15.8125 9.42815 15.3581 10.2369 14.5494C11.0456 13.7406 11.5 12.6437 11.5 11.5V4.3125C11.5 3.16875 11.0456 2.07185 10.2369 1.2631C9.42815 0.454351 8.33125 0 7.1875 0V0Z" fill="white"/>
</svg>
