<svg width="28" height="35" viewBox="0 0 28 35" fill="none" xmlns="http://www.w3.org/2000/svg">
<path fill-rule="evenodd" clip-rule="evenodd" d="M24.4306 21.0304C24.8198 19.8944 25.0178 18.7024 25.0167 17.5025V15.3153C25.0167 15.0252 24.9006 14.7471 24.694 14.542C24.4874 14.3369 24.2072 14.2217 23.915 14.2217C23.6228 14.2217 23.3426 14.3369 23.136 14.542C22.9294 14.7471 22.8133 15.0252 22.8133 15.3153V17.5025C22.8133 18.1018 22.7539 18.6836 22.6371 19.25L24.4306 21.0304ZM18.8738 24.7924C17.5459 25.6673 16.0039 26.1683 14.4119 26.2423C12.8199 26.3162 11.2375 25.9603 9.83315 25.2123C8.42879 24.4643 7.25503 23.3523 6.43681 21.9947C5.61859 20.637 5.18654 19.0845 5.18665 17.5025V15.3153C5.18665 15.0252 5.07059 14.7471 4.86398 14.542C4.65738 14.3369 4.37717 14.2217 4.08499 14.2217C3.79281 14.2217 3.51259 14.3369 3.30599 14.542C3.09939 14.7471 2.98332 15.0252 2.98332 15.3153V17.5025C2.98328 20.2136 3.9977 22.828 5.82976 24.8386C7.66183 26.8492 10.1809 28.1126 12.8983 28.3837V32.8128H6.28832C5.99614 32.8128 5.71593 32.928 5.50933 33.1331C5.30272 33.3382 5.18665 33.6164 5.18665 33.9064C5.18665 34.1964 5.30272 34.4746 5.50933 34.6797C5.71593 34.8848 5.99614 35 6.28832 35H21.7117C22.0039 35 22.2841 34.8848 22.4907 34.6797C22.6973 34.4746 22.8133 34.1964 22.8133 33.9064C22.8133 33.6164 22.6973 33.3382 22.4907 33.1331C22.2841 32.928 22.0039 32.8128 21.7117 32.8128H15.1017V28.3837C17.0351 28.1939 18.8829 27.4972 20.4558 26.365L18.8738 24.7924ZM20.61 17.24V6.56652C20.6112 5.01044 20.0552 3.50459 19.0414 2.31778C18.0275 1.13098 16.6218 0.340475 15.0751 0.0873848C13.5284 -0.165705 11.9414 0.135095 10.5975 0.936088C9.25356 1.73708 8.24013 2.98613 7.73812 4.46025L9.59994 6.30843C9.66267 5.16897 10.1715 4.09896 11.0178 3.32668C11.8642 2.5544 12.981 2.141 14.1301 2.17468C15.2792 2.20835 16.3695 2.68644 17.1685 3.50693C17.9674 4.32743 18.4118 5.42537 18.4067 6.56652V15.0506L20.61 17.24ZM15.6261 21.5706L17.2742 23.2067C16.2685 23.7759 15.1299 24.0729 13.9723 24.0681C12.8147 24.0633 11.6786 23.7568 10.6778 23.1792C9.67701 22.6016 8.84656 21.7733 8.26956 20.7771C7.69257 19.7808 7.38926 18.6516 7.38999 17.5025V13.3927L9.59333 15.5799V17.5025C9.59292 18.2166 9.76863 18.9199 10.1051 19.5511C10.4416 20.1823 10.9287 20.7221 11.5238 21.1234C12.1188 21.5247 12.8038 21.7752 13.5189 21.8532C14.234 21.9312 14.9574 21.8342 15.6261 21.5706ZM26.44 29.2127L0 2.9664L1.55996 1.41787L28 27.6642L26.44 29.2105V29.2127Z" fill="white"/>
</svg>
