<svg width="26" height="26" viewBox="0 0 26 26" fill="none" xmlns="http://www.w3.org/2000/svg">
<path d="M22.667 12.6653H25.3336C25.3336 5.82532 20.1696 0.666656 13.3203 0.666656V3.33332C18.7363 3.33332 22.667 7.25732 22.667 12.6653Z" fill="#8360C7"/>
<path d="M18.5 13H21C21 8.43949 17.5612 5 13 5V7.5C16.6067 7.5 18.5 9.39427 18.5 13Z" fill="#8360C7"/>
<path d="M17.8964 15.6769C17.6402 15.4441 17.3035 15.3199 16.9574 15.3306C16.6114 15.3413 16.283 15.486 16.0417 15.7343L12.851 19.0156C12.083 18.8689 10.539 18.3876 8.94971 16.8023C7.36038 15.2116 6.87904 13.6636 6.73638 12.9009L10.015 9.70892C10.2636 9.46776 10.4086 9.13935 10.4193 8.7932C10.43 8.44705 10.3056 8.11031 10.0724 7.85426L5.14571 2.43692C4.91243 2.18007 4.58821 2.02426 4.24191 2.0026C3.89561 1.98094 3.55451 2.09513 3.29104 2.32092L0.39771 4.80226C0.167191 5.03361 0.029602 5.34152 0.0110426 5.66759C-0.0089574 6.00092 -0.390291 13.8969 5.73238 20.0223C11.0737 25.3623 17.7644 25.7529 19.607 25.7529C19.8764 25.7529 20.0417 25.7449 20.0857 25.7423C20.4117 25.724 20.7195 25.5858 20.9497 25.3543L23.4297 22.4596C23.6557 22.1963 23.7701 21.8553 23.7487 21.509C23.7273 21.1627 23.5717 20.8384 23.315 20.6049L17.8964 15.6769Z" fill="#8360C7"/>
</svg>
