<svg width="27" height="29" viewBox="0 0 27 29" fill="none" xmlns="http://www.w3.org/2000/svg">
<path d="M25.6745 23.4275C25.0117 21.8421 24.0499 20.4019 22.8426 19.1873C21.6389 17.9692 20.2131 16.998 18.6439 16.3274C18.6298 16.3203 18.6157 16.3168 18.6017 16.3097C20.7906 14.7129 22.2136 12.112 22.2136 9.17758C22.2136 4.31642 18.3136 0.377808 13.5 0.377808C8.6864 0.377808 4.78634 4.31642 4.78634 9.17758C4.78634 12.112 6.20933 14.7129 8.39829 16.3132C8.38423 16.3203 8.37018 16.3239 8.35612 16.331C6.78205 17.0016 5.36959 17.9632 4.15741 19.1909C2.95123 20.4064 1.98955 21.8463 1.32547 23.4311C0.673078 24.9826 0.321229 26.646 0.288967 28.3313C0.288029 28.3692 0.294607 28.4068 0.308312 28.4421C0.322018 28.4774 0.342574 28.5095 0.368769 28.5366C0.394964 28.5637 0.426269 28.5853 0.460838 28.6C0.495407 28.6147 0.532541 28.6223 0.570053 28.6223H2.67819C2.83279 28.6223 2.95577 28.4981 2.95928 28.3455C3.02955 25.6062 4.11876 23.0408 6.04419 21.0963C8.03639 19.0844 10.6821 17.9774 13.5 17.9774C16.3179 17.9774 18.9636 19.0844 20.9558 21.0963C22.8812 23.0408 23.9704 25.6062 24.0407 28.3455C24.0442 28.5016 24.1672 28.6223 24.3218 28.6223H26.4299C26.4674 28.6223 26.5046 28.6147 26.5391 28.6C26.5737 28.5853 26.605 28.5637 26.6312 28.5366C26.6574 28.5095 26.678 28.4774 26.6917 28.4421C26.7054 28.4068 26.712 28.3692 26.711 28.3313C26.6759 26.6352 26.328 24.9852 25.6745 23.4275ZM13.5 15.2807C11.8873 15.2807 10.3694 14.6455 9.22749 13.4923C8.08558 12.3391 7.45665 10.8063 7.45665 9.17758C7.45665 7.54892 8.08558 6.01605 9.22749 4.86285C10.3694 3.70966 11.8873 3.07451 13.5 3.07451C15.1127 3.07451 16.6306 3.70966 17.7725 4.86285C18.9144 6.01605 19.5433 7.54892 19.5433 9.17758C19.5433 10.8063 18.9144 12.3391 17.7725 13.4923C16.6306 14.6455 15.1127 15.2807 13.5 15.2807Z" fill="white"/>
</svg>
