<svg width="16" height="16" viewBox="0 0 16 16" fill="none" xmlns="http://www.w3.org/2000/svg">
<path d="M14.9623 7.24582L1.50401 0.579153C1.36849 0.512029 1.21766 0.486747 1.06904 0.506246C0.920416 0.525744 0.780095 0.589222 0.664373 0.689307C0.54865 0.789393 0.462274 0.921981 0.415273 1.07167C0.368273 1.22137 0.362577 1.38202 0.398847 1.53499L1.35835 5.57582L7.5001 7.99999L1.35835 10.4242L0.398847 14.465C0.361894 14.6181 0.367115 14.7791 0.413898 14.9291C0.460681 15.0792 0.547092 15.2121 0.663024 15.3124C0.778955 15.4127 0.919613 15.4761 1.06854 15.4953C1.21747 15.5145 1.36852 15.4887 1.50401 15.4208L14.9623 8.75415C15.0984 8.68686 15.2134 8.5802 15.2939 8.44665C15.3745 8.3131 15.4172 8.15818 15.4172 7.99999C15.4172 7.84179 15.3745 7.68687 15.2939 7.55332C15.2134 7.41977 15.0984 7.31312 14.9623 7.24582Z" fill="#8360C7"/>
</svg>
