<svg width="26" height="26" viewBox="0 0 26 26" fill="none" xmlns="http://www.w3.org/2000/svg">
<g clip-path="url(#clip0)">
<path d="M5.06873 14.6392C4.83123 13.5271 4.83201 12.3774 5.07099 11.2656C5.09076 11.1737 5.13738 11.0898 5.20494 11.0245C5.27249 10.9592 5.35794 10.9154 5.45042 10.8987L7.35066 10.5527C7.4859 10.528 7.61415 10.4742 7.72653 10.395C7.8389 10.3158 7.93272 10.2132 8.00146 10.0941C8.07021 9.97505 8.11224 9.84247 8.12465 9.70556C8.13706 9.56864 8.11955 9.43066 8.07334 9.30119L7.42201 7.48087C7.39023 7.39231 7.38553 7.29628 7.40849 7.20503C7.43146 7.11378 7.48106 7.03143 7.55099 6.96846C8.39494 6.2079 9.38961 5.63363 10.4702 5.28302C10.5597 5.25395 10.6559 5.25217 10.7464 5.27791C10.8369 5.30364 10.9177 5.35573 10.9785 5.42754L12.2301 6.90128C12.3191 7.00604 12.4299 7.0902 12.5546 7.14791C12.6794 7.20562 12.8152 7.2355 12.9527 7.23549C13.0902 7.23549 13.226 7.20558 13.3508 7.14786C13.4756 7.09014 13.5863 7.00597 13.6753 6.9012L14.9259 5.42807C14.9867 5.35661 15.0673 5.30479 15.1576 5.27918C15.2479 5.25357 15.3437 5.25532 15.433 5.28421C16.5148 5.63318 17.5104 6.20726 18.3544 6.96869C18.4241 7.03159 18.4736 7.11378 18.4965 7.20482C18.5194 7.29586 18.5148 7.39166 18.4833 7.48008L17.8321 9.30125C17.7859 9.43071 17.7684 9.56867 17.7809 9.70556C17.7933 9.84246 17.8353 9.97502 17.904 10.0941C17.9727 10.2131 18.0665 10.3158 18.1789 10.395C18.2912 10.4742 18.4195 10.528 18.5547 10.5527L20.4574 10.8994C20.5498 10.9163 20.635 10.9602 20.7024 11.0256C20.7698 11.091 20.8162 11.1749 20.8359 11.2667C21.0736 12.3785 21.0731 13.5281 20.8344 14.6398C20.8147 14.7317 20.768 14.8156 20.7005 14.8809C20.6329 14.9462 20.5475 14.99 20.455 15.0067L18.5548 15.3527C18.4195 15.3774 18.2913 15.4312 18.1789 15.5104C18.0665 15.5896 17.9727 15.6922 17.904 15.8113C17.8352 15.9304 17.7932 16.0629 17.7808 16.1998C17.7684 16.3368 17.7859 16.4747 17.8321 16.6042L18.4831 18.4258C18.5146 18.5143 18.5191 18.6102 18.4961 18.7013C18.4731 18.7924 18.4235 18.8746 18.3536 18.9374C17.5097 19.698 16.515 20.2723 15.4344 20.6229C15.3449 20.6519 15.2487 20.6537 15.1582 20.628C15.0677 20.6022 14.9869 20.5501 14.9261 20.4783L13.6753 19.0041C13.5863 18.8994 13.4756 18.8152 13.3508 18.7575C13.226 18.6998 13.0902 18.6699 12.9527 18.6699C12.8152 18.6699 12.6794 18.6998 12.5546 18.7575C12.4299 18.8153 12.3191 18.8994 12.2301 19.0042L10.9795 20.4773C10.9187 20.5488 10.8381 20.6006 10.7478 20.6262C10.6576 20.6518 10.5617 20.6501 10.4724 20.6212C9.39064 20.2722 8.39498 19.6981 7.551 18.9367C7.4813 18.8738 7.43185 18.7916 7.40892 18.7006C7.38599 18.6095 7.3906 18.5137 7.42217 18.4253L8.07328 16.6042C8.11948 16.4747 8.13698 16.3367 8.12457 16.1998C8.11216 16.0629 8.07014 15.9304 8.00141 15.8113C7.93268 15.6923 7.83889 15.5896 7.72654 15.5104C7.61419 15.4312 7.48596 15.3774 7.35074 15.3527L5.44801 15.006C5.35565 14.9891 5.27038 14.9452 5.203 14.8798C5.13563 14.8144 5.08918 14.7305 5.06955 14.6387L5.06873 14.6392ZM11.3104 13.9009C11.5619 14.3365 11.9761 14.6543 12.4619 14.7845C12.9477 14.9147 13.4653 14.8465 13.9009 14.595C14.3365 14.3436 14.6543 13.9293 14.7845 13.4435C14.9147 12.9577 14.8465 12.4401 14.5951 12.0045C14.3436 11.5689 13.9294 11.2511 13.4435 11.1209C12.9577 10.9907 12.4401 11.0589 12.0045 11.3104C11.5689 11.5618 11.2511 11.9761 11.1209 12.4619C10.9907 12.9477 11.0589 13.4653 11.3104 13.9009Z" fill="#8360C7"/>
</g>
<defs>
<clipPath id="clip0">
<rect width="18.9641" height="18.9641" fill="white" transform="translate(0 9.48206) rotate(-30)"/>
</clipPath>
</defs>
</svg>
